<svg xmlns="http://www.w3.org/2000/svg" fill="currentColor">
  <defs>
    <style xmlns="http://www.w3.org/2000/svg">
rect,line{shape-rendering:crispEdges}g[fill]{display:none}:target g[fill]{display:inline}g[id$='-light']:target g[fill]{fill:var(--color-light, #fff)}g[id$='-dark']:target g[fill]{fill:var(--color-dark, #2d2d2d)}g[id$='-hl2bg']:target g[fill]{fill:var(--color-highlight-2-bg, #0058ad)}
    </style>
  </defs>
  <svg id="16-alert" viewBox="0 0 16 16"><g id="16-alert-dark"><g id="16-alert-light"><g id="16-alert-hl2bg"><g fill="currentColor">
    <path d="M8.01.5l.8 1.49V2l6.4 12 .79 1.5H0L.81 14 7.2 2 8.01.5zM8 4L2.729 14h10.562L8 4zm.745 7.469v1.5h-1.5v-1.5h1.5zm0-4.253v3h-1.5v-3h1.5z" fill-rule="evenodd"/>
  </g></g></g></g></svg>
  <svg id="16-arrow_chevron_down" viewBox="0 0 16 16"><g id="16-arrow_chevron_down-dark"><g id="16-arrow_chevron_down-light"><g id="16-arrow_chevron_down-hl2bg"><g fill="currentColor">
    <path d="M13.03 4.43l1.06 1.06-5.03 5.019L8 11.57l-1.06-1.061L1.91 5.49l1.06-1.06L8 9.46l5.03-5.03z" fill-rule="evenodd"/>
  </g></g></g></g></svg>
  <svg id="16-arrow_chevron_left" viewBox="0 0 16 16"><g id="16-arrow_chevron_left-dark"><g id="16-arrow_chevron_left-light"><g id="16-arrow_chevron_left-hl2bg"><g fill="currentColor">
    <path d="M13.03 4.43l1.06 1.06-5.03 5.019L8 11.57l-1.06-1.061L1.91 5.49l1.06-1.06L8 9.46l5.03-5.03z" fill-rule="evenodd" transform="rotate(90 8 8)"/>
  </g></g></g></g></svg>
  <svg id="16-arrow_chevron_right" viewBox="0 0 16 16"><g id="16-arrow_chevron_right-dark"><g id="16-arrow_chevron_right-light"><g id="16-arrow_chevron_right-hl2bg"><g fill="currentColor">
    <path d="M13.03 4.43l1.06 1.06-5.03 5.019L8 11.57l-1.06-1.061L1.91 5.49l1.06-1.06L8 9.46l5.03-5.03z" fill-rule="evenodd" transform="rotate(-90 8 8)"/>
  </g></g></g></g></svg>
  <svg id="16-arrow_chevron_up" viewBox="0 0 16 16"><g id="16-arrow_chevron_up-dark"><g id="16-arrow_chevron_up-light"><g id="16-arrow_chevron_up-hl2bg"><g fill="currentColor">
    <path d="M13.03 4.43l1.06 1.06-5.03 5.019L8 11.57l-1.06-1.061L1.91 5.49l1.06-1.06L8 9.46l5.03-5.03z" fill-rule="evenodd" transform="matrix(1 0 0 -1 0 16)"/>
  </g></g></g></g></svg>
  <svg id="16-arrow_diagonal_top_right" viewBox="0 0 16 16"><g id="16-arrow_diagonal_top_right-dark"><g id="16-arrow_diagonal_top_right-light"><g id="16-arrow_diagonal_top_right-hl2bg"><g fill="currentColor">
    <path d="M5.41 2l7.105.008h1.5v1.498l.007 7.107h-1.5V4.546L3.068 14l-1.06-1.06 9.443-9.443H5.41V2z" fill-rule="evenodd"/>
  </g></g></g></g></svg>
  <svg id="16-arrow_download" viewBox="0 0 16 16"><g id="16-arrow_download-dark"><g id="16-arrow_download-light"><g id="16-arrow_download-hl2bg"><g fill="currentColor">
    <path d="M16 14.54v1.5H0v-1.5h16zM8.749 0v9.71l4.28-4.28 1.06 1.06-5.03 5.02L8 12.57l-1.06-1.06-5.03-5.02 1.06-1.06 4.28 4.28V0h1.499z" fill-rule="evenodd"/>
  </g></g></g></g></svg>
  <svg id="16-arrow_fullscreen_close" viewBox="0 0 16 16"><g id="16-arrow_fullscreen_close-dark"><g id="16-arrow_fullscreen_close-light"><g id="16-arrow_fullscreen_close-hl2bg"><g fill="currentColor">
    <path d="M15.494 11v1.5h-1.939l2.439 2.44-1.06 1.06-2.441-2.44v1.94h-1.499V11h4.5zM5.006 11v1.5h-.002l.001 3H3.506v-1.939L1.065 16l-1.06-1.06 2.438-2.44H.506V11h4.5zm9.921-11l1.06 1.06-2.44 2.44h1.941V5h-4.5V.5h1.499l-.001 1.94L14.927 0zM1.06 0L3.5 2.438V.5h1.499V5h-4.5V3.5H2.44L0 1.06 1.06 0z" fill-rule="evenodd"/>
  </g></g></g></g></svg>
  <svg id="16-arrow_fullscreen_open" viewBox="0 0 16 16"><g id="16-arrow_fullscreen_open-dark"><g id="16-arrow_fullscreen_open-light"><g id="16-arrow_fullscreen_open-hl2bg"><g fill="currentColor">
    <path d="M12.054 11l2.44 2.44V11.5h1.5V16h-4.5v-1.5h1.94l-2.44-2.44 1.06-1.06zm-8.109 0l1.06 1.06-2.44 2.44h1.941V16h-4.5v-4.5h1.5v1.939l2.44-2.44zM15.988 0v1.5h-.002l.001 3h-1.5V2.56L12.047 5l-1.06-1.06 2.438-2.44h-1.938V0h4.5zM4.5 0v1.5H2.56L5 3.94 3.94 5 1.5 2.56V4.5H0V0h4.5z" fill-rule="evenodd"/>
  </g></g></g></g></svg>
  <svg id="16-arrow_logout" viewBox="0 0 16 16"><g id="16-arrow_logout-dark"><g id="16-arrow_logout-light"><g id="16-arrow_logout-hl2bg"><g fill="currentColor">
    <path d="M4 0v1.5H1.5v12.998l2.5.001v1.5l-2.5-.001v.015H0V0h4zm5.92 1.91l5.019 5.03L16 8l-1.061 1.06-5.019 5.03-1.06-1.06 4.28-4.28H3.43v-1.5h9.709l-4.28-4.28 1.06-1.06z" fill-rule="evenodd"/>
  </g></g></g></g></svg>
  <svg id="16-arrow_right" viewBox="0 0 16 16"><g id="16-arrow_right-dark"><g id="16-arrow_right-light"><g id="16-arrow_right-hl2bg"><g fill="currentColor">
    <path fill-rule="evenodd" d="M8.929.929l6.01 6.01L16 8l-7.071 7.071-1.06-1.06 5.26-5.261H0v-1.5h13.129l-5.26-5.26L8.928.929z"/>
  </g></g></g></g></svg>
  <svg id="16-arrow_share" viewBox="0 0 16 16"><g id="16-arrow_share-dark"><g id="16-arrow_share-light"><g id="16-arrow_share-hl2bg"><g fill="currentColor">
    <path d="M16 6.996L9.35 1v3.577H7.938C3.553 4.577 0 7.5 0 11.104V13l.628-.566c2.135-1.923 5.156-3.02 8.322-3.02h.4v3.578L16 6.996z" fill-rule="evenodd"/>
  </g></g></g></g></svg>
  <svg id="16-calendar" viewBox="0 0 16 17"><g id="16-calendar-dark"><g id="16-calendar-light"><g id="16-calendar-hl2bg"><g fill="currentColor">
    <path d="M5.494 0v2h4.959V0h1.5v2H16v14H0V2h3.995V0h1.499zM14.5 3.5h-2.547v1.93h-1.5V3.5H5.494v1.93H3.995V3.5H1.499v11H14.5v-11zm-9.005 7.6v1.5h-1.5v-1.5h1.5zm3.229 0v1.5h-1.5v-1.5h1.5zm3.229 0v1.5h-1.5v-1.5h1.5zM5.495 8v1.5h-1.5V8h1.5zm3.229 0v1.5h-1.5V8h1.5zm3.229 0v1.5h-1.5V8h1.5z" fill-rule="evenodd"/>
  </g></g></g></g></svg>
  <svg id="16-checkbox_check" viewBox="0 0 16 16"><g id="16-checkbox_check-dark"><g id="16-checkbox_check-light"><g id="16-checkbox_check-hl2bg"><g fill="currentColor">
    <path d="M6.962 11L4 8.142l1.211-1.138 1.751 1.69L10.788 5 12 6.137z" fill-rule="evenodd"/>
  </g></g></g></g></svg>
  <svg id="16-checkbox_dash" viewBox="0 0 16 16"><g id="16-checkbox_dash-dark"><g id="16-checkbox_dash-light"><g id="16-checkbox_dash-hl2bg"><g fill="currentColor">
    <path d="M4 7h8v2H4z"/>
  </g></g></g></g></svg>
  <svg id="16-checked" viewBox="0 0 16 16"><g id="16-checked-dark"><g id="16-checked-light"><g id="16-checked-hl2bg"><g fill="currentColor">
    <path d="M8 0a8 8 0 110 16A8 8 0 018 0zm0 1.5a6.5 6.5 0 100 13 6.5 6.5 0 000-13zm2.828 3.495l1.06 1.06L8 9.944H8l-1.06 1.061v-.001l-.001.001-1.06-1.06v-.002L4.11 8.177l1.061-1.06 1.766 1.766 3.89-3.888z"/>
  </g></g></g></g></svg>
  <svg id="16-clock" viewBox="0 0 16 16"><g id="16-clock-dark"><g id="16-clock-light"><g id="16-clock-hl2bg"><g fill="currentColor">
    <path d="M8 0c4.42 0 8 3.58 8 8s-3.58 8-8 8-8-3.58-8-8 3.58-8 8-8zm-.06 1.5a6.5 6.5 0 100 13 6.5 6.5 0 000-13zM8 3.963v4.5h3.74v1.5H6.5v-6H8z" fill-rule="evenodd"/>
  </g></g></g></g></svg>
  <svg id="16-close" viewBox="0 0 16 16"><g id="16-close-dark"><g id="16-close-light"><g id="16-close-hl2bg"><g fill="currentColor">
    <path d="M12.944 1.996l1.06 1.06L9.06 8l4.944 4.944-1.06 1.06L8 9.06l-4.944 4.944-1.06-1.06L6.939 8 1.996 3.056l1.06-1.06L8 6.939l4.944-4.943z" fill-rule="evenodd"/>
  </g></g></g></g></svg>
  <svg id="16-cog" viewBox="0 0 16 16"><g id="16-cog-dark"><g id="16-cog-light"><g id="16-cog-hl2bg"><g fill="currentColor">
    <path d="M6.785.102a7.27 7.27 0 012.43 0c.25.038.457.21.542.448l.448 1.26c.211.075.417.16.616.253l1.206-.573a.685.685 0 01.7.067 8.003 8.003 0 011.717 1.716c.15.204.175.473.067.7l-.574 1.207c.094.199.179.404.253.615l1.261.449c.238.084.41.293.448.543.07.451.101.837.101 1.213 0 .377-.032.763-.1 1.214a.685.685 0 01-.45.543l-1.26.448c-.074.212-.159.417-.253.616l.574 1.207a.686.686 0 01-.066.7 8.027 8.027 0 01-1.718 1.717.685.685 0 01-.7.066l-1.207-.573a6.373 6.373 0 01-.615.253l-.449 1.26a.685.685 0 01-.541.448C8.77 15.967 8.374 16 8 16c-.374 0-.771-.033-1.215-.101a.685.685 0 01-.541-.448l-.449-1.26a6.371 6.371 0 01-.615-.253l-1.207.573a.685.685 0 01-.7-.066 8.014 8.014 0 01-1.717-1.717.685.685 0 01-.067-.7l.574-1.207a6.694 6.694 0 01-.253-.616L.55 9.757a.685.685 0 01-.45-.543A7.945 7.945 0 010 8c0-.376.032-.762.1-1.213a.685.685 0 01.449-.543l1.26-.449c.076-.21.16-.416.254-.615l-.574-1.207a.684.684 0 01.067-.7 8.013 8.013 0 011.717-1.716.684.684 0 01.7-.067l1.207.573a6.52 6.52 0 01.615-.253L6.244.55a.685.685 0 01.541-.448zm1.808 1.43a5.405 5.405 0 00-1.186 0l-.413 1.16a.673.673 0 01-.443.42 5.06 5.06 0 00-.986.405.671.671 0 01-.61.017l-1.107-.526a6.54 6.54 0 00-.84.841l.526 1.106a.673.673 0 01-.017.61 5.082 5.082 0 00-.406.986.671.671 0 01-.42.443l-1.16.413A5.812 5.812 0 001.5 8c0 .188.01.383.032.594l1.16.412a.672.672 0 01.42.443c.104.35.24.683.406.986.102.189.109.415.017.61l-.526 1.106c.254.306.535.587.84.841l1.106-.526a.669.669 0 01.61.017c.305.166.636.302.987.405.206.061.37.217.443.42l.413 1.16c.42.043.765.043 1.186 0l.413-1.16a.672.672 0 01.443-.42c.35-.103.682-.24.986-.405a.672.672 0 01.61-.017l1.106.526c.306-.254.587-.535.841-.84l-.526-1.107a.673.673 0 01.017-.61c.166-.304.302-.636.406-.986a.671.671 0 01.42-.443l1.16-.412a5.669 5.669 0 000-1.187l-1.16-.413a.672.672 0 01-.42-.443c-.104-.35-.24-.68-.406-.986a.672.672 0 01-.017-.61l.526-1.106a6.523 6.523 0 00-.84-.84l-1.107.525a.669.669 0 01-.61-.017 5.048 5.048 0 00-.986-.405.673.673 0 01-.443-.42zM8 5c1.654 0 3 1.346 3 3s-1.346 3-3 3-3-1.346-3-3 1.346-3 3-3zm0 1.5c-.827 0-1.5.673-1.5 1.5S7.173 9.5 8 9.5 9.5 8.827 9.5 8 8.827 6.5 8 6.5z" fill-rule="evenodd"/>
  </g></g></g></g></svg>
  <svg id="16-diagram" viewBox="0 0 14 14"><g id="16-diagram-dark"><g id="16-diagram-light"><g id="16-diagram-hl2bg"><g fill="currentColor">
    <path d="M5.76 13.25V.75h2.482v12.5H5.76zm5.01 0V3.797h2.48v9.453h-2.48zm-10.02 0V9.511h2.48v3.739H.75z" stroke="currentColor" fill="none" fill-rule="evenodd"/>
  </g></g></g></g></svg>
  <svg id="16-envelope" viewBox="0 0 16 16"><g id="16-envelope-dark"><g id="16-envelope-light"><g id="16-envelope-hl2bg"><g fill="currentColor">
    <path d="M16 1v1.147l.003.003L16 2.15V15H0V1h16zM1.5 3.405V13.5h13V3.409l-5.328 4.47h.001l-1.17.982-1.17-.981L1.5 3.405zM13.253 2.5h-10.5l5.25 4.4 5.25-4.4z" fill-rule="evenodd"/>
  </g></g></g></g></svg>
  <svg id="16-external_link" viewBox="0 0 16 16"><g id="16-external_link-dark"><g id="16-external_link-light"><g id="16-external_link-hl2bg"><g fill="currentColor">
    <path d="M3.5 2v.001H6V3.5H3.5v9h9V10h1.499v2.5H14V14H2V2h1.5zm10.499.001V8H12.5V4.559L8.158 8.902l-1.06-1.06L11.44 3.5 8 3.5V2.001h5.999z" fill-rule="evenodd"/>
  </g></g></g></g></svg>
  <svg id="16-eye_hidden" viewBox="0 0 16 16"><g id="16-eye_hidden-dark"><g id="16-eye_hidden-light"><g id="16-eye_hidden-hl2bg"><g fill="currentColor">
    <path d="M14.073 2l1.061 1.061-1.506 1.507L12.596 5.6h-.002l-1.686 1.686v.002L7.26 10.937h-.002l-.923.924-1.238 1.24-.002-.001-1.982 1.982-1.06-1.061 1.576-1.575C2.078 11.54.868 10.07 0 8.03c1.6-3.67 4.27-5.5 8-5.5 1.69 0 3.162.376 4.415 1.129L14.073 2zm.566 3.678c.516.675.97 1.46 1.361 2.352-1.57 3.67-4.24 5.5-8 5.5-.395 0-.779-.02-1.15-.06l1.445-1.445c2.653-.088 4.91-1.372 6.144-3.995a7.776 7.776 0 00-.811-1.34l1.01-1.012zM8 4.03c-2.75 0-5 1.27-6.311 4 .733 1.557 1.784 2.642 3.07 3.285L5.9 10.172A2.989 2.989 0 015 8.03a3.002 3.002 0 015.144-2.1l1.168-1.168C10.316 4.269 9.192 4.03 8 4.03zm0 2.5c-.83 0-1.5.67-1.5 1.5 0 .426.177.81.46 1.083L9.084 6.99A1.495 1.495 0 008 6.53z" fill-rule="evenodd"/>
  </g></g></g></g></svg>
  <svg id="16-flag" viewBox="0 0 16 16"><g id="16-flag-dark"><g id="16-flag-light"><g id="16-flag-hl2bg"><g fill="currentColor">
    <path d="M2.995 0v1.002H14.5v9H2.995V16h-1.5V0h1.5z" fill-rule="evenodd"/>
  </g></g></g></g></svg>
  <svg id="16-form" viewBox="0 0 16 16"><g id="16-form-dark"><g id="16-form-light"><g id="16-form-hl2bg"><g fill="currentColor">
    <path d="M11.85 5.5l-.53-.53-.53.528-5.86 5.845-.221.22v2.643h2.642l.22-.22 5.854-5.851.53-.53-.53-.531-1.575-1.575zm-9.35-3h11v1.633L15 5.6V1H1v14h1.487v-4.231l.013-.011V2.5zm8.79 11L9.798 15H15V9.776l-1.5 1.506V13.5h-2.21zM5.854 7.596l1.534-1.567h-3.36v1.567h1.826z" fill-rule="evenodd"/>
  </g></g></g></g></svg>
  <svg id="16-globe" viewBox="0 0 16 16"><g id="16-globe-dark"><g id="16-globe-light"><g id="16-globe-hl2bg"><g fill="currentColor">
    <path d="M10.144 14.104c.385-.864.66-1.954.827-3.134 1.18-.168 2.27-.442 3.133-.827a6.497 6.497 0 01-3.96 3.961m-8.248-3.96c.864.384 1.954.658 3.134.826.167 1.18.441 2.27.827 3.134a6.5 6.5 0 01-3.961-3.96m3.96-8.248c-.385.864-.66 1.954-.826 3.134-1.18.167-2.27.441-3.134.826a6.501 6.501 0 013.96-3.96M8 1.523c.342 0 1.034 1.16 1.404 3.347A22.875 22.875 0 008 4.825c-.466 0-.937.016-1.404.045C6.966 2.683 7.659 1.523 8 1.523M1.524 8c0-.342 1.16-1.034 3.346-1.404a22.874 22.874 0 000 2.807C2.683 9.033 1.524 8.342 1.524 8M8 9.65a20.94 20.94 0 01-1.59-.06 20.936 20.936 0 010-3.18 20.958 20.958 0 013.181 0 21.382 21.382 0 010 3.18c-.496.037-1.025.06-1.591.06m0 4.827c-.34 0-1.034-1.16-1.404-3.347.467.028.938.044 1.404.044.466 0 .937-.016 1.404-.044-.37 2.187-1.062 3.347-1.404 3.347m3.13-5.074a22.232 22.232 0 000-2.807c2.188.37 3.347 1.062 3.347 1.404 0 .342-1.16 1.033-3.347 1.403m2.974-3.547c-.864-.385-1.954-.66-3.134-.826-.167-1.18-.441-2.27-.826-3.134a6.498 6.498 0 013.96 3.96M8 0C3.589 0 0 3.588 0 8s3.589 8 8 8c4.412 0 8-3.588 8-8s-3.588-8-8-8" fill-rule="evenodd"/>
  </g></g></g></g></svg>
  <svg id="16-globe_v2" viewBox="0 0 16 16"><g id="16-globe_v2-dark"><g id="16-globe_v2-light"><g id="16-globe_v2-hl2bg"><g fill="currentColor">
    <path d="M7 .5h-.25A7 7 0 000 7.5c0 .805.142 1.604.42 2.36.159.477.38.931.66 1.35a6.94 6.94 0 005.7 3.29h.47a6.939 6.939 0 005.64-3.23A6.83 6.83 0 0014 7.5a7 7 0 00-7-7zM1.82 9.34a5.48 5.48 0 01-.08-3.45c.453.152.913.28 1.38.38a12.357 12.357 0 00.03 2.7 12.5 12.5 0 00-1.33.37zm.71 1.35c.295-.096.596-.176.9-.24a8.12 8.12 0 00.62 1.68 5.22 5.22 0 01-1.52-1.44zm.84-5.9c-.34-.08-.673-.17-1-.27a5.37 5.37 0 011.68-1.65 8.36 8.36 0 00-.68 1.92zm2.88 7.86a5.09 5.09 0 01-1.35-2.48c.447-.068.898-.111 1.35-.13v2.61zm0-4.15c-.546.02-1.09.07-1.63.15-.04-.382-.06-.766-.06-1.15v-1c.546.088 1.097.141 1.65.16l.04 1.84zm0-3.33a13.2 13.2 0 01-1.41-.14 5.28 5.28 0 011.41-2.68v2.82zm5.35-.67c-.32.11-.64.21-1 .29a8.5 8.5 0 00-.6-1.92 5.39 5.39 0 011.6 1.63zM7.75 2.35a5.24 5.24 0 011.41 2.71c-.46.07-.94.12-1.41.15V2.35zm0 10.3v-2.61c.45 0 .9.07 1.34.14a4.93 4.93 0 01-1.34 2.47zm1.63-4c-.54-.03-1.08-.08-1.63-.15V6.71A14.87 14.87 0 009.4 6.5v1c.014.4.008.8-.02 1.2v-.05zm.62 3.48a7.932 7.932 0 00.56-1.63c.3.07.59.16.89.25A5.309 5.309 0 0110 12.13zm2.21-2.75c-.43-.151-.867-.278-1.31-.38.044-.499.057-1 .04-1.5a10.12 10.12 0 00-.07-1.25c.464-.109.92-.242 1.37-.4a5.37 5.37 0 01-.08 3.53h.05z" fill-rule="evenodd"/>
  </g></g></g></g></svg>
  <svg id="16-heart" viewBox="0 0 16 16"><g id="16-heart-dark"><g id="16-heart-light"><g id="16-heart-hl2bg"><g fill="currentColor">
    <path d="M12.765 1.85C11.267.229 9.025.018 7.173 1.488L7 1.631l-.172-.143C4.976.018 2.733.228 1.235 1.85c-1.665 1.8-1.703 4.576.232 6.669L7 14.5l5.533-5.981c1.935-2.093 1.897-4.868.232-6.67zm-1.189 5.717L7 12.514 2.424 7.567c-1.437-1.554-1.41-3.49-.232-4.766 1.164-1.259 2.908-1.29 4.33.245L7 3.562l.478-.516c1.422-1.534 3.166-1.504 4.33-.245 1.14 1.233 1.203 3.083-.093 4.61l-.139.156z" fill-rule="evenodd"/>
  </g></g></g></g></svg>
  <svg id="16-home" viewBox="0 0 16 16"><g id="16-home-dark"><g id="16-home-light"><g id="16-home-hl2bg"><g fill="currentColor">
    <path d="M8.065 1.5l1.703 1.16 2.783 1.91L14.5 5.91v8.59H9V10H7v4.5H1.5V5.999l1.95-1.338L6.375 2.66l1.69-1.16zm.006 1.92L3 6.895v6.146l2.5-.001V8.5h5v4.539H13V6.797L8.07 3.42z" fill-rule="evenodd"/>
  </g></g></g></g></svg>
  <svg id="16-hourglass" viewBox="0 0 16 16"><g id="16-hourglass-dark"><g id="16-hourglass-light"><g id="16-hourglass-hl2bg"><g fill="currentColor">
    <path d="M14.01 0v5.423l-1.5.857L9.52 8l2.99 1.721 1.5.855V16H1.99l.001-5.424 1.5-.865L6.48 8 3.49 6.289l-1.5-.866V0h12.02zM7.973 8.86L3.49 11.442v3.064h9.02v-3.064L8.026 8.861 8 8.876l-.027-.016zm4.537-7.367H3.49v3.065l4.483 2.58L8 7.124l.026.015 4.484-2.581V1.493z" fill-rule="evenodd"/>
  </g></g></g></g></svg>
  <svg id="16-index" viewBox="0 0 16 16"><g id="16-index-dark"><g id="16-index-light"><g id="16-index-hl2bg"><g fill="currentColor">
    <path clip-rule="evenodd" d="M3 2.055H1v2h2v-2zM3 7H1v2h2V7zm-2 4.944h2v2H1v-2zm14-9.889H5v2h10v-2zM5 7h10v2H5V7zm10 4.944H5v2h10v-2z" fill-rule="evenodd"/>
  </g></g></g></g></svg>
  <svg id="16-info" viewBox="0 0 16 16"><g id="16-info-dark"><g id="16-info-light"><g id="16-info-hl2bg"><g fill="currentColor">
    <path d="M8 0c4.42 0 8 3.58 8 8s-3.58 8-8 8-8-3.58-8-8 3.58-8 8-8zm-.06 1.5a6.5 6.5 0 100 13 6.5 6.5 0 000-13zm.75 4.75v6h-1.5v-6h1.5zm0-2.5v1.5h-1.5v-1.5h1.5z" fill-rule="evenodd"/>
  </g></g></g></g></svg>
  <svg id="16-level" viewBox="0 0 16 16"><g id="16-level-dark"><g id="16-level-light"><g id="16-level-hl2bg"><g fill="currentColor">
    <path class="st0" d="M8 1L0 6.1v5.1h1.5V7l1.2.8V13l.3.2C4.4 14.4 6.2 15 8 15c1.8 0 3.6-.6 5.1-1.8l.3-.2V7.8L16 6.1 8 1zm3.8 11.3c-2.2 1.7-5.4 1.7-7.6 0V8.7L8 11.2l3.8-2.4v3.5zM8 9.4L2.8 6.1 8 2.8l5.2 3.3L8 9.4z"/>
  </g></g></g></g></svg>
  <svg id="16-location_pin" viewBox="0 0 16 16"><g id="16-location_pin-dark"><g id="16-location_pin-light"><g id="16-location_pin-hl2bg"><g fill="currentColor">
    <path d="M7.966 0c.24 0 .49.01.74.04 2.64.32 4.82 2.44 5.2 5.07.03.23.03.49.02.77-.065 1.246-.513 2.45-1.203 3.493l-.177.257L7.966 16l-4.58-6.37c-.79-1.1-1.31-2.4-1.38-3.75-.01-.28-.01-.54.02-.77.38-2.63 2.56-4.75 5.2-5.07.25-.03.5-.04.74-.04zm0 1.48c-.18 0-.37.01-.55.03-1.98.24-3.61 1.84-3.9 3.82-.02.18-.02.37-.01.58.045.927.372 1.822.874 2.6l.156.23 3.43 4.8 3.43-4.8c.59-.83.98-1.81 1.03-2.83.01-.21.01-.4-.01-.58-.29-1.98-1.92-3.58-3.9-3.82-.18-.02-.37-.03-.55-.03zm.002 2.77c.968 0 1.75.782 1.75 1.75s-.782 1.75-1.75 1.75-1.75-.782-1.75-1.75S7 4.25 7.968 4.25z" fill-rule="evenodd"/>
  </g></g></g></g></svg>
  <svg id="16-lock_closed" viewBox="0 0 16 16"><g id="16-lock_closed-dark"><g id="16-lock_closed-light"><g id="16-lock_closed-hl2bg"><g fill="currentColor">
    <path d="M8.01 0c2.21 0 4 1.79 4 4l-.001 2H14v10H2V6h2.009l.001-2A3.999 3.999 0 017.81.005zm4.5 7.5h-9v6.999h9V7.5zm-4.5-6A2.5 2.5 0 005.51 4l-.001 2h5l.001-2a2.501 2.501 0 00-2.336-2.495z" fill-rule="evenodd"/>
  </g></g></g></g></svg>
  <svg id="16-magnifier_lens" viewBox="0 0 16 16"><g id="16-magnifier_lens-dark"><g id="16-magnifier_lens-light"><g id="16-magnifier_lens-hl2bg"><g fill="currentColor">
    <path d="M6.5.5a6.5 6.5 0 015.096 10.535l2.697 2.697-1.06 1.06-2.698-2.696A6.5 6.5 0 116.5.5zm0 1.5a5 5 0 100 10 5 5 0 000-10z" fill-rule="evenodd"/>
  </g></g></g></g></svg>
  <svg id="16-magnifier_lens_minus" viewBox="0 0 16 16"><g id="16-magnifier_lens_minus-dark"><g id="16-magnifier_lens_minus-light"><g id="16-magnifier_lens_minus-hl2bg"><g fill="currentColor">
    <path d="M7 0c3.863 0 7 3.138 7 7 0 1.661-.58 3.188-1.55 4.39L16 14.94 14.94 16l-3.55-3.55A6.968 6.968 0 017 14c-3.863 0-7-3.138-7-7s3.137-7 7-7zm0 1.5A5.502 5.502 0 001.5 7c0 3.036 2.464 5.5 5.5 5.5s5.5-2.464 5.5-5.5S10.036 1.5 7 1.5zm3.007 4.746v1.5h-6v-1.5h6z" fill-rule="evenodd"/>
  </g></g></g></g></svg>
  <svg id="16-magnifier_lens_plus" viewBox="0 0 16 16"><g id="16-magnifier_lens_plus-dark"><g id="16-magnifier_lens_plus-light"><g id="16-magnifier_lens_plus-hl2bg"><g fill="currentColor">
    <path d="M7 0c3.863 0 7 3.138 7 7 0 1.661-.58 3.188-1.55 4.39L16 14.94 14.94 16l-3.55-3.55A6.968 6.968 0 017 14c-3.863 0-7-3.138-7-7s3.137-7 7-7zm0 1.5A5.502 5.502 0 001.5 7c0 3.036 2.464 5.5 5.5 5.5s5.5-2.464 5.5-5.5S10.036 1.5 7 1.5zm.757 2.496l-.001 2.249h2.25v1.5h-2.25v2.25h-1.5v-2.25h-2.25v-1.5h2.25v-2.25h1.5z" fill-rule="evenodd"/>
  </g></g></g></g></svg>
  <svg id="16-menu_burger" viewBox="0 0 16 16"><g id="16-menu_burger-dark"><g id="16-menu_burger-light"><g id="16-menu_burger-hl2bg"><g fill="currentColor">
    <path d="M14 2H0V.5h14V2zM0 7.25h14v-1.5H0v1.5zm0 5.25h14V11H0v1.5z" fill-rule="evenodd"/>
  </g></g></g></g></svg>
  <svg id="16-menu_increment" viewBox="0 0 16 16"><g id="16-menu_increment-dark"><g id="16-menu_increment-light"><g id="16-menu_increment-hl2bg"><g fill="currentColor">
    <path d="M8 12.5V14H0v-1.5h8zm4-5.25v1.5H0v-1.5h12zM16 2v1.5H0V2h16z" fill-rule="evenodd"/>
  </g></g></g></g></svg>
  <svg id="16-minus" viewBox="0 0 16 16"><g id="16-minus-dark"><g id="16-minus-light"><g id="16-minus-hl2bg"><g fill="currentColor">
    <path fill-rule="evenodd" d="M0 8.5h16V7H0z"/>
  </g></g></g></g></svg>
  <svg id="16-money_euro" viewBox="0 0 16 16"><g id="16-money_euro-dark"><g id="16-money_euro-light"><g id="16-money_euro-hl2bg"><g fill="currentColor">
    <path d="M11.21 0c.81 0 1.59.12 2.32.34.48.15.94.34 1.37.57l-.75 1.29c-.44-.22-.91-.4-1.4-.51-.49-.13-1.01-.19-1.54-.19a6.502 6.502 0 00-6.054 4.131h5.163v1.473H4.772a6.558 6.558 0 00.004 1.82h5.543v1.472H5.167a6.502 6.502 0 007.484 3.944c.5-.11.97-.28 1.41-.5l.75 1.3c-.44.22-.9.41-1.38.55-.7.2-1.45.31-2.22.31-3.584 0-6.616-2.36-7.634-5.604H1.099V8.923h2.165a8.064 8.064 0 01-.004-1.819H1.1V5.631h2.467A8 8 0 0111.21 0z" fill-rule="evenodd"/>
  </g></g></g></g></svg>
  <svg id="16-pantheon" viewBox="0 0 16 16"><g id="16-pantheon-dark"><g id="16-pantheon-light"><g id="16-pantheon-hl2bg"><g fill="currentColor">
    <path d="M8 0l8 8h-2.5v6.5h1.479V16H.958v-1.5h1.541V8H0l8-8zM5.665 8H3.998v6.5h1.667V8zm3.167 0H7.165v6.5h1.667V8zM12 8h-1.668v6.5H12V8zM8 2.42l-4 4h8l-4-4z" fill-rule="evenodd"/>
  </g></g></g></g></svg>
  <svg id="16-pause_circle" viewBox="0 0 16 16"><g id="16-pause_circle-dark"><g id="16-pause_circle-light"><g id="16-pause_circle-hl2bg"><g fill="currentColor">
    <path d="M8 0c4.412 0 8 3.589 8 8 0 4.412-3.588 8-8 8-4.411 0-8-3.588-8-8 0-4.411 3.589-8 8-8zm0 1.5A6.507 6.507 0 001.5 8c0 3.583 2.915 6.5 6.5 6.5 3.583 0 6.5-2.917 6.5-6.5 0-3.584-2.917-6.5-6.5-6.5zM10.499 5v6h-1.5V5h1.5zM7 5v6h-1.5V5h1.5z" fill-rule="evenodd"/>
  </g></g></g></g></svg>
  <svg id="16-pencil" viewBox="0 0 16 16"><g id="16-pencil-dark"><g id="16-pencil-light"><g id="16-pencil-hl2bg"><g fill="currentColor">
    <path d="M11.76 0L16 4.24 14.94 5.3l-1.07 1.06-9.63 9.63-.16-.01H.01v-4.07L0 11.75l9.63-9.63 1.07-1.06L11.76 0zM9.63 4.24l-8.12 8.11v2.13h2.13l8.11-8.12-2.12-2.12zm2.12-2.13l-1.06 1.07 2.12 2.12 1.07-1.06-2.13-2.13z" fill-rule="evenodd"/>
  </g></g></g></g></svg>
  <svg id="16-pie_chart" viewBox="0 0 16 16"><g id="16-pie_chart-dark"><g id="16-pie_chart-light"><g id="16-pie_chart-hl2bg"><g fill="currentColor">
    <path d="M7.67 2.2v6.13h6.14v.77c0 3.81-3.09 6.9-6.91 6.9a6.901 6.901 0 01-.237-13.796L6.9 2.2h.77zM6.14 9.87V3.79a5.367 5.367 0 106.043 6.308l.037-.228H6.14V3.79zM8.95 0h.71a6.342 6.342 0 016.336 6.113L16 6.34v.71H8.95V0h.71zm1.43 1.48v4.14h4.14c-.31-2.13-2-3.82-4.14-4.14z" fill-rule="evenodd"/>
  </g></g></g></g></svg>
  <svg id="16-play_circle" viewBox="0 0 16 16"><g id="16-play_circle-dark"><g id="16-play_circle-light"><g id="16-play_circle-hl2bg"><g fill="currentColor">
    <path d="M8 0c4.411 0 8 3.589 8 8s-3.589 8-8 8-8-3.589-8-8 3.589-8 8-8zm.024 1.524a6.507 6.507 0 00-6.5 6.5c0 3.584 2.916 6.5 6.5 6.5s6.5-2.916 6.5-6.5-2.916-6.5-6.5-6.5zM6 5.014l6 2.993L6 11V5.013z" fill-rule="evenodd"/>
  </g></g></g></g></svg>
  <svg id="16-plus" viewBox="0 0 16 16"><g id="16-plus-dark"><g id="16-plus-light"><g id="16-plus-hl2bg"><g fill="currentColor">
    <path d="M8.75.25l-.001 7h7.001v1.5H8.749l.001 7h-1.5l-.001-7H.25v-1.5h6.999l.001-7h1.5z" fill-rule="evenodd"/>
  </g></g></g></g></svg>
  <svg id="16-quote_english" viewBox="0 0 16 16"><g id="16-quote_english-dark"><g id="16-quote_english-light"><g id="16-quote_english-hl2bg"><g fill="currentColor">
    <path d="M16 1v3.37c-1.904.104-3.5 1.504-3.5 3.63H16v7H9V9.037C9 3.956 11.985 1.207 16 1zM7 1v3.37C5.096 4.474 3.5 5.874 3.5 8H7v7H0V9.037C0 3.956 2.985 1.207 7 1z"/>
  </g></g></g></g></svg>
  <svg id="16-ribbon" viewBox="0 0 16 16"><g id="16-ribbon-dark"><g id="16-ribbon-light"><g id="16-ribbon-hl2bg"><g fill="currentColor">
    <path d="M7.996.004c2.76 0 5 2.24 5 5 0 .998-.288 1.926-.796 2.705v.001l2.37 6.12L8.98 16 8 13.47 7.02 16l-5.59-2.17 2.367-6.113v-.002c-.51-.78-.8-1.71-.8-2.71 0-2.76 2.24-5 5-5zM4.928 8.947L3.36 12.98l2.8 1.09L7.2 11.4l-.617-1.593-.007-.002a4.732 4.732 0 01-1.648-.859zm6.138-.002a4.894 4.894 0 01-2.814 1.05L8.8 11.4l1.04 2.67 2.8-1.09-1.569-4.04a4.95 4.95 0 01-.005.005zm-3.07-7.44a3.504 3.504 0 00-3.43 4.21v.003l.004-.007c.14.67.47 1.27.94 1.74l-.002.005.12.118c.04.039.083.076.128.111l.009.007-.005-.011c.52.45 1.19.74 1.91.8l.002.005.16.013c.054.004.11.007.164.007.97 0 1.86-.4 2.49-1.05.47-.47.8-1.07.94-1.74a3.504 3.504 0 00-3.43-4.21z" fill-rule="evenodd"/>
  </g></g></g></g></svg>
  <svg id="16-rss" viewBox="0 0 16 16"><g id="16-rss-dark"><g id="16-rss-light"><g id="16-rss-hl2bg"><g fill="currentColor">
    <path d="M4.173 11.822a1.845 1.845 0 01.002 2.617h-.002c-.338.338-.8.544-1.315.544a1.85 1.85 0 01-1.313-.544 1.845 1.845 0 010-2.618 1.857 1.857 0 012.628 0zM1.001 5.76v2.673a6.52 6.52 0 014.632 1.924 6.534 6.534 0 011.92 4.637h.001V15h2.684a9.218 9.218 0 00-2.71-6.528A9.206 9.206 0 001 5.761zM1.006 1v2.672C7.245 3.676 12.316 8.756 12.32 15H15a13.963 13.963 0 00-4.106-9.893A13.95 13.95 0 001.006 1z"/>
  </g></g></g></g></svg>
  <svg id="16-services" viewBox="0 0 16 16"><g id="16-services-dark"><g id="16-services-light"><g id="16-services-hl2bg"><g fill="currentColor">
    <path d="M6 0H0v6h6V0zm3.5 9.5h3v3h-3v-3zM8 8h6v6H8V8zm4-6.5h-2a.5.5 0 00-.5.5v2a.5.5 0 00.5.5h2a.5.5 0 00.5-.5V2a.5.5 0 00-.5-.5zM10 0a2 2 0 00-2 2v2a2 2 0 002 2h2a2 2 0 002-2V2a2 2 0 00-2-2h-2zM2 9.5h2a.5.5 0 01.5.5v2a.5.5 0 01-.5.5H2a.5.5 0 01-.5-.5v-2a.5.5 0 01.5-.5zM0 10a2 2 0 012-2h2a2 2 0 012 2v2a2 2 0 01-2 2H2a2 2 0 01-2-2v-2z" fill-rule="evenodd" clip-rule="evenodd"/>
  </g></g></g></g></svg>
  <svg id="16-speech_bubble" viewBox="0 0 16 16"><g id="16-speech_bubble-dark"><g id="16-speech_bubble-light"><g id="16-speech_bubble-hl2bg"><g fill="currentColor">
    <path d="M16 0v10.92H9.12L5.5 14.51 4 16v-5.08H0V0h16zm-1.5 1.49h-13v7.94h4v2.98l1.49-1.49 1.501-1.49H14.5V1.49z" fill-rule="evenodd"/>
  </g></g></g></g></svg>
  <svg id="16-speech_bubble_fill" viewBox="0 0 16 16"><g id="16-speech_bubble_fill-dark"><g id="16-speech_bubble_fill-light"><g id="16-speech_bubble_fill-hl2bg"><g fill="currentColor">
    <path d="M.8.615c-.442 0-.8.353-.8.79v9.806c0 .436.358.789.8.789h3.228l.01 1.898a1 1 0 001.623.777L9.018 12H15.2c.442 0 .8-.353.8-.79V1.406a.795.795 0 00-.8-.79H.8z" fill-rule="evenodd"/>
  </g></g></g></g></svg>
  <svg id="16-speech_bubble_star" viewBox="0 0 16 16"><g id="16-speech_bubble_star-dark"><g id="16-speech_bubble_star-light"><g id="16-speech_bubble_star-hl2bg"><g fill="currentColor">
    <path d="M8 .395l2.47 5 5.53.81-4 3.9.94 5.5-4.94-2.6-4.94 2.6.939-5.5L0 6.205l5.53-.81 2.47-5zm0 3.39L6.46 6.816 3 7.305l2.5 2.36-.59 3.33L8 11.425l3.09 1.57-.59-3.33 2.499-2.36-3.449-.489L8 3.785z" fill-rule="evenodd"/>
  </g></g></g></g></svg>
  <svg id="16-stairs" viewBox="0 0 16 17"><g id="16-stairs-dark"><g id="16-stairs-light"><g id="16-stairs-hl2bg"><g fill="currentColor">
    <path d="M9.472 1.555h4.826v1.5h-3.326v4.433H6.837v4.165H2.523v3.177h-1.5v-4.677h4.314V5.988h4.135V1.555z" fill-rule="evenodd"/>
  </g></g></g></g></svg>
  <svg id="16-subject" viewBox="0 0 16 16"><g id="16-subject-dark"><g id="16-subject-light"><g id="16-subject-hl2bg"><g fill="currentColor">
    <path d="M10.875 3.414L7.705.244.234 7.594 3.4 10.76l3.648-3.647L8.643 9.93H5.43v2.7H0v1.537h12.169V9.931H10.46L8.208 5.952l.215-.215 2.452-2.323zM3.4 8.64L2.365 7.604l5.33-5.248 1.03 1.03-1.348 1.276L3.4 8.64zm3.569 3.992h3.662v-1.163H6.97v1.163z" fill-rule="evenodd"/>
  </g></g></g></g></svg>
  <svg id="16-summary" viewBox="0 0 16 17"><g id="16-summary-dark"><g id="16-summary-light"><g id="16-summary-hl2bg"><g fill="currentColor">
    <path d="M1 4.133h14v-1.5H1v1.5zm0 3.689h14v-1.5H1v1.5zm7 6.811H1v-1.499h7v1.5zm-7-3.235h14v-1.5H1v1.5z" fill-rule="evenodd"/>
  </g></g></g></g></svg>
  <svg id="16-tag" viewBox="0 0 16 16"><g id="16-tag-dark"><g id="16-tag-light"><g id="16-tag-hl2bg"><g fill="currentColor">
    <path d="M2.885 0L4.26.01l9.07.039v.13l-.01 1.42-.02 3.281-.01 2.019-.04 7.12-.01 2.041-1.49-1.311-3.77-3.31-3.8 3.261-1.51 1.289.01-2.019.04-7.13.01-2.02.02-3.27L2.76 0h.125zM4.25 1.56l-.02 4.57-.01 2.02-.03 4.529 2.62-2.25L8 9.42l1.15 1.019 2.61 2.281.031-4.541.009-2.01.02-4.58-7.57-.029z" fill-rule="evenodd"/>
  </g></g></g></g></svg>
  <svg id="16-three_circles" viewBox="0 0 16 16"><g id="16-three_circles-dark"><g id="16-three_circles-light"><g id="16-three_circles-hl2bg"><g fill="currentColor">
    <path d="M3.75 7.75c2.07 0 3.75 1.68 3.75 3.75 0 2.07-1.68 3.75-3.75 3.75C1.68 15.25 0 13.57 0 11.5c0-2.07 1.68-3.75 3.75-3.75zm8.44 0c2.07 0 3.75 1.68 3.75 3.75 0 2.07-1.68 3.75-3.75 3.75-2.07 0-3.75-1.68-3.75-3.75 0-2.07 1.68-3.75 3.75-3.75zm-8.44 1.5c-1.24 0-2.25 1.01-2.25 2.25s1.01 2.25 2.25 2.25S6 12.74 6 11.5 4.99 9.25 3.75 9.25zm8.44 0c-1.24 0-2.25 1.01-2.25 2.25s1.01 2.25 2.25 2.25 2.25-1.01 2.25-2.25-1.01-2.25-2.25-2.25zM7.94.5c2.07 0 3.75 1.68 3.75 3.75C11.69 6.32 10.01 8 7.94 8 5.87 8 4.19 6.32 4.19 4.25 4.19 2.18 5.87.5 7.94.5zm0 1.5C6.7 2 5.69 3.01 5.69 4.25S6.7 6.5 7.94 6.5s2.25-1.01 2.25-2.25S9.18 2 7.94 2z" fill-rule="evenodd"/>
  </g></g></g></g></svg>
  <svg id="16-tick" viewBox="0 0 16 16"><g id="16-tick-dark"><g id="16-tick-light"><g id="16-tick-hl2bg"><g fill="currentColor">
    <path d="M14.022 2.517l1.06 1.061-9.899 9.899-.009-.008-.013.014L.918 9.24l1.061-1.061 3.19 3.191 8.853-8.853z" fill-rule="evenodd"/>
  </g></g></g></g></svg>
  <svg id="16-tool" viewBox="0 0 24 24"><g id="16-tool-dark"><g id="16-tool-light"><g id="16-tool-hl2bg"><g fill="currentColor">
    <path d="M12.534 7.686a5.73 5.73 0 016.52-7.554l-3.372 3.372.506 3.455 3.984 1.035 3.372-3.372a5.73 5.73 0 01-7.555 6.52L4.955 22.175A2.443 2.443 0 011.5 18.72L12.534 7.686z" fill-rule="evenodd"/>
  </g></g></g></g></svg>
  <svg id="16-triangle_up_fill" viewBox="0 0 16 16"><g id="16-triangle_up_fill-dark"><g id="16-triangle_up_fill-light"><g id="16-triangle_up_fill-hl2bg"><g fill="currentColor">
    <path d="M.981 11L8.009 0l7.029 11z" transform="translate(0 2)"/>
  </g></g></g></g></svg>
  <svg id="16-triangle_up_line" viewBox="0 0 16 16"><g id="16-triangle_up_line-dark"><g id="16-triangle_up_line-light"><g id="16-triangle_up_line-hl2bg"><g fill="currentColor">
    <path d="M11.387 9L8.009 3.714 4.632 9h6.755zM.98 11L8.009 0l7.029 11H.981z" transform="translate(0 2)"/>
  </g></g></g></g></svg>
  <svg id="16-user" viewBox="0 0 16 16"><g id="16-user-dark"><g id="16-user-light"><g id="16-user-hl2bg"><g fill="currentColor">
    <path d="M8 2.427a3.34 3.34 0 013.344 3.344c0 1.06-.493 2.01-1.27 2.622a5.581 5.581 0 013.5 5.18H2.426a5.589 5.589 0 013.63-5.232l-.13.052a3.329 3.329 0 01-1.271-2.622A3.34 3.34 0 018 2.427zm0 7.075c-1.658 0-3.052 1.078-3.414 2.526-.005.014-.005.029-.01.043h6.849c-.006-.014-.006-.029-.011-.043C11.052 10.58 9.658 9.502 8 9.502zm0-5.571c-1.018 0-1.84.822-1.84 1.84 0 .68.374 1.281.932 1.6.264.154.577.24.908.24a1.846 1.846 0 001.84-1.84c0-1.018-.822-1.84-1.84-1.84z" fill-rule="evenodd"/>
  </g></g></g></g></svg>
  <svg id="24-aaltoblog" viewBox="0 0 24 24"><g id="24-aaltoblog-dark"><g id="24-aaltoblog-light"><g id="24-aaltoblog-hl2bg"><g fill="currentColor">
    <path d="M5 5.75L10.759 0 14 3.24 8.239 8.99 5 9V5.75zm3.63-1.51L6.51 6.35 6.5 7.5l1.14-.02 2.11-2.12-1.12-1.12zm1.06-1.059l1.06-1.07 1.129 1.13-1.07 1.06-1.12-1.12zM14 5v7H8.038L3 15v-3H0V1h8L6.5 2.5h-5v8h3v1.897L7.42 10.5h5.08v-4L14 5z" fill-rule="evenodd" clip-rule="evenodd" transform="translate(5 5)"/>
  </g></g></g></g></svg>
  <svg id="24-arrow_dates" viewBox="0 0 24 24"><g id="24-arrow_dates-dark"><g id="24-arrow_dates-light"><g id="24-arrow_dates-hl2bg"><g fill="currentColor">
    <path d="M7.024 2.945a1.126 1.126 0 100-2.252 1.126 1.126 0 000 2.252zM8.15 7.823a1.126 1.126 0 11-2.252 0 1.126 1.126 0 012.252 0zM0 10.336l1.061-1.062 5.961 5.96 5.96-5.96 1.062 1.062-7.022 7.021L0 10.336z" fill-rule="evenodd"/>
  </g></g></g></g></svg>
  <svg id="24-facebook" viewBox="0 0 24 24"><g id="24-facebook-dark"><g id="24-facebook-light"><g id="24-facebook-hl2bg"><g fill="currentColor">
    <path d="M14.746 9.886h-1.87V8.64c0-.467.305-.577.52-.577h1.32V6.007L12.896 6c-2.017 0-2.475 1.534-2.475 2.515v1.37H9.254v2.119h1.168V18h2.453v-5.996h1.656l.215-2.118z" fill-rule="evenodd"/>
  </g></g></g></g></svg>
  <svg id="24-facebook_default" viewBox="0 0 24 24"><g id="24-facebook_default-dark"><g id="24-facebook_default-light"><g id="24-facebook_default-hl2bg"><g fill="currentColor">
    <path d="M7.323 5.181H4.83V3.52c0-.623.407-.769.694-.769h1.759V.009L4.858 0c-2.69 0-3.301 2.045-3.301 3.353v1.828H0v2.824h1.557V16h3.272V8.005h2.208l.286-2.824z" transform="translate(8 4)"/>
  </g></g></g></g></svg>
  <svg id="24-instagram" viewBox="0 0 24 24"><g id="24-instagram-dark"><g id="24-instagram-light"><g id="24-instagram-hl2bg"><g fill="currentColor">
    <path d="M12 5.499c1.765 0 1.987.007 2.68.039.692.032 1.165.142 1.578.303.427.166.79.388 1.151.75.362.36.584.723.75 1.15.16.414.27.887.302 1.579.029.627.038.868.04 2.216v.928c-.002 1.348-.011 1.589-.04 2.216-.031.692-.141 1.165-.302 1.578a3.17 3.17 0 01-.75 1.151 3.17 3.17 0 01-1.15.75c-.414.16-.887.27-1.579.302-.627.029-.868.038-2.216.04h-.928c-1.348-.002-1.59-.011-2.216-.04-.692-.031-1.165-.141-1.579-.302a3.17 3.17 0 01-1.15-.75 3.18 3.18 0 01-.75-1.15c-.161-.414-.271-.887-.303-1.579-.032-.693-.039-.915-.039-2.68 0-1.766.007-1.987.039-2.68.032-.692.142-1.165.303-1.579a3.18 3.18 0 01.75-1.15 3.18 3.18 0 011.15-.75c.414-.161.887-.271 1.579-.303.693-.032.914-.039 2.68-.039zm.477 1.172h-.954c-1.305.001-1.533.01-2.15.037-.634.029-.978.135-1.207.224-.304.118-.52.259-.748.486a2.012 2.012 0 00-.486.748c-.089.229-.195.573-.224 1.207-.028.617-.036.845-.037 2.15v.954c.001 1.304.01 1.533.037 2.15.029.634.135.978.224 1.207.118.304.259.52.486.747.228.227.444.369.748.486.229.09.573.195 1.207.224.582.027.818.035 1.942.037h1.37c1.123-.002 1.36-.01 1.942-.037.634-.029.978-.134 1.207-.224.304-.117.52-.259.747-.486.227-.227.369-.443.486-.747.09-.23.195-.573.224-1.207.027-.583.035-.819.037-1.943v-1.369a34.674 34.674 0 00-.037-1.942c-.029-.634-.134-.978-.224-1.207a2.021 2.021 0 00-.486-.748 2.006 2.006 0 00-.747-.486c-.23-.089-.573-.195-1.207-.224-.617-.028-.846-.036-2.15-.037zM12 8.388a3.612 3.612 0 110 7.224 3.612 3.612 0 010-7.224zm0 1.268a2.344 2.344 0 100 4.688 2.344 2.344 0 000-4.688zm3.973-1.99a1.083 1.083 0 110 2.166 1.083 1.083 0 010-2.166z" fill-rule="evenodd"/>
  </g></g></g></g></svg>
  <svg id="24-link_default" viewBox="0 0 24 24"><g id="24-link_default-dark"><g id="24-link_default-light"><g id="24-link_default-hl2bg"><g fill="currentColor">
    <path d="M14.056 9.167a3.667 3.667 0 000-7.334h-1.834V0h1.834a5.5 5.5 0 010 11h-1.834V9.167h1.834zM5.5 11a5.5 5.5 0 010-11h1.833v1.833H5.5a3.667 3.667 0 000 7.334h1.833V11H5.5zm.611-6.722h7.333v2.444H6.111V4.278z" transform="translate(2 7)"/>
  </g></g></g></g></svg>
  <svg id="24-linkedin" viewBox="0 0 24 24"><g id="24-linkedin-dark"><g id="24-linkedin-light"><g id="24-linkedin-hl2bg"><g fill="currentColor">
    <path d="M14.983 10C16.706 10 18 11.117 18 13.519V18h-2.62v-4.182c0-1.05-.38-1.769-1.329-1.769-.723 0-1.154.486-1.345.952-.068.167-.086.399-.086.633V18H10v-.181c.006-1.11.03-6.973 0-7.636h2.62v1.107c.35-.533.972-1.29 2.363-1.29zm-6.316 0v8H6v-8h2.667zm3.953 1.29a.187.187 0 01-.017.026h.017v-.026zM7.34 6c.812 0 1.311.576 1.327 1.334 0 .74-.515 1.333-1.342 1.333H7.31C6.514 8.667 6 8.073 6 7.334 6 6.576 6.53 6 7.34 6z"/>
  </g></g></g></g></svg>
  <svg id="24-linkedin_default" viewBox="0 0 24 24"><g id="24-linkedin_default-dark"><g id="24-linkedin_default-light"><g id="24-linkedin_default-hl2bg"><g fill="currentColor">
    <path d="M11.977 5.333c2.298 0 4.023 1.49 4.023 4.692V16h-3.493v-5.576c0-1.4-.507-2.358-1.772-2.358-.964 0-1.54.647-1.793 1.269-.092.223-.115.531-.115.844V16H5.333s.045-9.445 0-10.422h3.494v1.476a.249.249 0 01-.023.034h.023v-.034c.465-.711 1.296-1.72 3.15-1.72zM1.787 0C2.87 0 3.535.769 3.556 1.778c0 .986-.686 1.778-1.789 1.778h-.021C.686 3.556 0 2.764 0 1.778 0 .768.707 0 1.787 0zM0 16V5.333h3.556V16H0z" transform="translate(4 4)"/>
  </g></g></g></g></svg>
  <svg id="24-mail_default" viewBox="0 0 24 24"><g id="24-mail_default-dark"><g id="24-mail_default-light"><g id="24-mail_default-hl2bg"><g fill="currentColor">
    <path d="M2.01 3.214v7.777H16.9V3.214L9.455 9.596 2.009 3.214zm13.209-1.205H3.69l5.764 4.94 5.764-4.94zM1.182 0h16.545c.653 0 1.182.53 1.182 1.182v10.636c0 .653-.529 1.182-1.182 1.182H1.182C.529 13 0 12.47 0 11.818V1.182C0 .529.53 0 1.182 0z" transform="translate(3 6)"/>
  </g></g></g></g></svg>
  <svg id="24-snapchat" viewBox="0 0 24 24"><g id="24-snapchat-dark"><g id="24-snapchat-light"><g id="24-snapchat-hl2bg"><g fill="currentColor">
    <path d="M18.317 15.265c-1.78-.31-2.58-2.24-2.614-2.322a.17.17 0 00-.006-.013c-.095-.204-.116-.374-.062-.507.102-.256.48-.382.73-.466.071-.024.137-.046.19-.069.445-.185.667-.412.662-.675-.003-.207-.156-.392-.398-.483a.697.697 0 00-.274-.056c-.065 0-.16.01-.25.054-.211.104-.4.161-.564.17a.481.481 0 01-.22-.059c.005-.095.01-.193.017-.296l.002-.04c.056-.94.126-2.109-.165-2.797-.863-2.047-2.697-2.206-3.238-2.206h-.033l-.226.002c-.54 0-2.37.16-3.233 2.205-.29.688-.22 1.857-.165 2.796l.02.336a.498.498 0 01-.255.06c-.171 0-.374-.058-.602-.17a.463.463 0 00-.207-.046c-.267 0-.587.186-.637.462-.035.2.05.49.655.743.055.023.12.045.19.068.25.085.63.211.732.467.053.133.032.303-.063.507l-.006.014c-.033.082-.835 2.012-2.613 2.321a.284.284 0 00-.227.3.41.41 0 00.029.128c.133.33.696.571 1.722.74.034.049.07.222.091.327.022.104.044.211.076.324.03.112.11.245.317.245.083 0 .182-.02.295-.044.171-.036.405-.084.698-.084.162 0 .33.015.5.045.331.058.612.268.938.511.466.349.994.743 1.796.743.022 0 .044 0 .066-.002l.096.002c.803 0 1.33-.394 1.796-.743.327-.243.607-.453.938-.511.17-.03.338-.045.5-.045.28 0 .5.038.698.078.123.026.223.04.295.04h.015c.153 0 .26-.086.303-.24.03-.111.053-.216.075-.322.022-.105.057-.277.091-.326 1.026-.168 1.589-.41 1.722-.738a.392.392 0 00.03-.13.284.284 0 00-.227-.298" fill-rule="evenodd"/>
  </g></g></g></g></svg>
  <svg id="24-three_circles_united" viewBox="0 0 33 33"><g id="24-three_circles_united-dark"><g id="24-three_circles_united-light"><g id="24-three_circles_united-hl2bg"><g fill="currentColor">
    <path d="M17.92 16.196a6.5 6.5 0 005.48-6.42 6.5 6.5 0 10-8.48 6.192v1.252l-1.1.79a6.475 6.475 0 00-4.42-1.735 6.5 6.5 0 106.092 4.227l.905-.65 1.71 1.294a6.509 6.509 0 00-.207 1.63 6.501 6.501 0 101.634-4.31l-1.614-1.223v-1.047zm2.48-6.42a3.5 3.5 0 11-7 0 3.5 3.5 0 017 0zm-7.5 13a3.5 3.5 0 11-7 0 3.5 3.5 0 017 0zm15 0a3.5 3.5 0 11-7 0 3.5 3.5 0 017 0z" fill-rule="evenodd"/>
  </g></g></g></g></svg>
  <svg id="24-twitter" viewBox="0 0 24 24"><g id="24-twitter-dark"><g id="24-twitter-light"><g id="24-twitter-hl2bg"><g fill="currentColor">
    <path d="M19 7.398a5.505 5.505 0 01-1.65.48 3.033 3.033 0 001.264-1.684 5.57 5.57 0 01-1.824.738 2.797 2.797 0 00-2.097-.96c-1.586 0-2.872 1.361-2.872 3.043 0 .238.025.47.074.693-2.387-.127-4.504-1.338-5.92-3.18a3.17 3.17 0 00-.389 1.53c0 1.057.507 1.988 1.278 2.534a2.74 2.74 0 01-1.301-.38v.038c0 1.475.99 2.705 2.303 2.984a2.676 2.676 0 01-1.296.053c.365 1.21 1.426 2.09 2.682 2.114A5.552 5.552 0 015 16.662a7.803 7.803 0 004.403 1.367c5.283 0 8.173-4.639 8.173-8.66 0-.134-.003-.264-.01-.395A6.023 6.023 0 0019 7.398" fill-rule="evenodd"/>
  </g></g></g></g></svg>
  <svg id="24-twitter_default" viewBox="0 0 24 24"><g id="24-twitter_default-dark"><g id="24-twitter_default-light"><g id="24-twitter_default-hl2bg"><g fill="currentColor">
    <path d="M16 1.722a6.043 6.043 0 01-1.885.578c.678-.454 1.198-1.175 1.444-2.032a6.18 6.18 0 01-2.085.891C12.875.445 12.021 0 11.078 0 9.265 0 7.795 1.643 7.795 3.672c0 .287.029.568.085.836C5.152 4.355 2.732 2.894 1.114.672A3.993 3.993 0 00.67 2.518c0 1.274.579 2.398 1.46 3.057a3.011 3.011 0 01-1.487-.46v.047c0 1.778 1.132 3.263 2.632 3.6a2.91 2.91 0 01-1.481.063c.417 1.46 1.63 2.52 3.065 2.55-1.123.986-2.537 1.572-4.076 1.572-.264 0-.525-.017-.783-.05 1.453 1.041 3.178 1.648 5.032 1.648 6.038 0 9.34-5.595 9.34-10.447 0-.16-.003-.318-.01-.476A7.14 7.14 0 0016 1.722" transform="translate(4 5)"/>
  </g></g></g></g></svg>
  <svg id="24-wechat" viewBox="0 0 24 24"><g id="24-wechat-dark"><g id="24-wechat-light"><g id="24-wechat-hl2bg"><g fill="currentColor">
    <path d="M18.661 11.937c1.23 1.64 1.149 3.692-.328 5.004-.41.41-.574.657-.328 1.23.082.083.082.247.082.329-.41-.164-.82-.492-1.313-.574-.41-.082-.902.164-1.312.246-1.395.164-2.626-.246-3.61-1.149-1.887-1.805-1.641-4.512.574-5.989 1.97-1.312 4.84-.902 6.235.903zm-4.676-4.348c.492.656.82 1.312.902 2.215-1.394.082-2.625.492-3.61 1.476-.984.985-1.476 2.133-1.312 3.61l-1.477-.246c-.164 0-.41 0-.492.082-.492.246-.985.574-1.477.903.082-.493.164-.82.246-1.231.082-.246.082-.41-.246-.656-1.64-1.149-2.379-2.954-1.887-4.759.492-1.64 1.723-2.707 3.282-3.2 2.215-.738 4.676 0 6.07 1.806zm-.958 4.63c-.339 0-.593.302-.508.705 0 .301.254.603.508.603s.508-.302.508-.603c0-.403-.254-.704-.508-.704zm3.305 0c-.255 0-.509.302-.509.604 0 .402.254.704.509.704.254 0 .508-.302.508-.603.085-.403-.17-.704-.508-.704zM11.84 8.344c-.339 0-.678.402-.678.804s.254.804.678.704c.339 0 .678-.302.678-.805 0-.34-.182-.68-.495-.716l-.088-.002zm-4.152 0a.706.706 0 00-.678.703c0 .402.255.805.593.805a.706.706 0 00.678-.704c.085-.402-.254-.804-.593-.804z"/>
  </g></g></g></g></svg>
  <svg id="24-weibo" viewBox="0 0 24 24"><g id="24-weibo-dark"><g id="24-weibo-light"><g id="24-weibo-hl2bg"><g fill="currentColor">
    <path d="M11.851 9.607c.98-.098 3.136-1.176 4.116-.098.392.49.294 1.372 0 2.059 1.177.686 2.647.98 2.353 2.842-.098.49-.294 1.078-.588 1.47-1.96 2.842-8.037 4.018-11.86 1.862-1.274-.686-2.548-1.764-2.352-3.822.196-1.764 1.372-3.235 2.548-4.41 1.176-1.177 2.353-2.059 3.92-2.45 1.863-.393 2.353 1.077 1.863 2.547zm-1 1.012c-1.278.107-2.163.43-3.049.967-.688.43-1.573 1.29-1.77 2.365-.492 2.58 2.065 3.87 4.033 3.977 2.164.108 4.426-.645 5.41-1.935.393-.43.786-1.182.786-2.042-.098-2.687-3.147-3.547-5.41-3.332zm2.46 3.01c.983 3.332-4.328 4.944-5.312 2.042-.688-1.935.885-3.44 2.558-3.655 1.377-.107 2.459.645 2.754 1.613zm-3.788 1.4c-.932.264-.763 1.67.254 1.406.762-.175.932-1.67-.254-1.406zm1.078-.285c.294.589 1.03.147 1.03-.294-.148-.44-1.03-.294-1.03.294zm9.875-5.529c.098.98-.098 2.157-.686 2.157-.98.098-.49-1.079-.49-1.667 0-1.96-1.666-3.332-3.235-3.332-.49 0-1.568.294-1.372-.686.098-.392.49-.392.784-.49 2.745-.392 4.803 1.568 4.999 4.018zm-2.254.098c.098.686-.098 1.372-.49 1.372-.784 0-.49-.49-.588-1.078 0-.392-.294-.784-.588-.98-.589-.294-1.373.196-1.373-.588 0-.588.49-.49.784-.49 1.177-.098 2.059.784 2.255 1.764z"/>
  </g></g></g></g></svg>
  <svg id="24-whatsapp" viewBox="0 0 24 24"><g id="24-whatsapp-dark"><g id="24-whatsapp-light"><g id="24-whatsapp-hl2bg"><g fill="currentColor">
    <path d="M12.027 5.5c1.732 0 3.357.672 4.579 1.89a6.388 6.388 0 011.894 4.557c-.001 3.474-2.78 6.315-6.241 6.437l-.232.004a6.5 6.5 0 01-2.809-.637l-.287-.147L5.5 18.5l.918-3.338a6.407 6.407 0 01-.864-3.22C5.556 8.39 8.46 5.5 12.027 5.5zm.002 1.088c-2.967 0-5.38 2.402-5.382 5.354 0 .92.235 1.817.682 2.614l.14.235.129.203-.544 1.976 2.036-.532.197.116c.743.44 1.584.692 2.45.739l.288.007c2.967 0 5.38-2.402 5.382-5.354a5.31 5.31 0 00-1.574-3.788 5.356 5.356 0 00-3.804-1.57zM9.736 8.967c.107 0 .215 0 .31.005.099.005.232-.037.363.276.135.323.459 1.115.5 1.196.04.08.066.174.013.282-.054.107-.081.174-.162.268-.081.094-.17.21-.243.282-.08.08-.165.168-.07.329.094.16.418.688.899 1.115.618.548 1.139.718 1.3.799.162.08.257.067.351-.04a9.4 9.4 0 00.512-.632c.108-.16.216-.134.364-.08.148.053.943.443 1.105.523.162.08.27.121.31.188.04.067.04.39-.094.766-.135.376-.781.719-1.092.765a2.226 2.226 0 01-1.019-.064 9.315 9.315 0 01-.922-.339c-1.622-.697-2.682-2.323-2.762-2.43-.081-.108-.66-.873-.66-1.665s.417-1.182.565-1.343a.595.595 0 01.432-.201z" fill-rule="evenodd"/>
  </g></g></g></g></svg>
  <svg id="24-whatsapp_default" viewBox="0 0 24 24"><g id="24-whatsapp_default-dark"><g id="24-whatsapp_default-light"><g id="24-whatsapp_default-hl2bg"><g fill="currentColor">
    <path d="M8.133 0C3.796 0 .267 3.529.267 7.867c0 1.372.359 2.72 1.039 3.906L.014 15.65a.267.267 0 00.32.342l4.232-1.113c1.099.56 2.33.855 3.567.855 4.338 0 7.867-3.528 7.867-7.866C16 3.529 12.471 0 8.133 0zm3.636 10.925l-.37.37c-.467.468-.988.705-1.549.705-.756 0-1.57-.432-2.421-1.283L5.283 8.57C4.612 7.9 4.2 7.246 4.057 6.631c-.172-.747.046-1.43.648-2.033l.37-.37a.797.797 0 01.922-.14c.56.297 1.14 1.27 1.205 1.38.116.203.152.413.101.594a.55.55 0 01-.25.327c-.17.142-.369.32-.404.364-.214.316-.19.559.086.834L8.41 9.264c.278.278.516.301.836.084.043-.033.22-.232.362-.403a.553.553 0 01.492-.272c.139 0 .286.042.427.122.112.066 1.084.647 1.38 1.208a.781.781 0 01-.139.922z" transform="translate(4 4)"/>
  </g></g></g></g></svg>
  <svg id="24-youtube" viewBox="0 0 24 24"><g id="24-youtube-dark"><g id="24-youtube-light"><g id="24-youtube-hl2bg"><g fill="currentColor">
    <path d="M10.688 13.75v-3.5l3.5 1.756-3.5 1.744zm8.172-4.486s-.136-.944-.556-1.359c-.532-.545-1.13-.547-1.403-.58-1.96-.138-4.898-.138-4.898-.138h-.006s-2.939 0-4.898.139c-.274.032-.87.034-1.403.58-.42.414-.556 1.358-.556 1.358S5 10.37 5 11.479v1.038c0 1.107.14 2.215.14 2.215s.137.943.556 1.358c.533.545 1.232.528 1.544.585 1.12.105 4.76.137 4.76.137s2.942-.004 4.901-.142c.274-.032.87-.035 1.403-.58.42-.415.556-1.358.556-1.358s.14-1.108.14-2.215v-1.038c0-1.108-.14-2.215-.14-2.215z" fill-rule="evenodd"/>
  </g></g></g></g></svg>
  <svg id="svg-aalto_spinner" viewBox="0 0 137 137"><g id="svg-aalto_spinner-dark"><g id="svg-aalto_spinner-light"><g id="svg-aalto_spinner-hl2bg"><g fill="currentColor">
    <circle cx="8.35" cy="68.05" r="8.25" transform="matrix(-1 0 0 1 16.7 0)"/>
    <circle cx="12.917" cy="91.011" r="8.3" fill-opacity=".938" transform="scale(-1 1) rotate(22.5 0 26.073)"/>
    <circle cx="25.923" cy="110.477" r="8.35" fill-opacity=".875" transform="scale(-1 1) rotate(45 0 47.893)"/>
    <circle cx="45.389" cy="123.483" r="8.4" fill-opacity=".813" transform="scale(-1 1) rotate(67.5 0 55.554)"/>
    <circle cx="68.35" cy="128.05" r="8.45" fill-opacity=".75" transform="matrix(0 1 1 0 -59.7 59.7)"/>
    <circle cx="91.31" cy="123.482" r="8.5" fill-opacity=".688" transform="scale(1 -1) rotate(-67.5 -93.494 0)"/>
    <circle cx="110.776" cy="110.477" r="8.55" fill-opacity=".625" transform="scale(1 -1) rotate(-45 -155.94 0)"/>
    <circle cx="123.782" cy="91.011" r="8.6" fill-opacity=".563" transform="scale(1 -1) rotate(-22.5 -333.761 0)"/>
    <circle cx="128.35" cy="68.05" r="8.65" fill-opacity=".5" transform="matrix(1 0 0 -1 0 136.1)"/>
    <circle cx="123.782" cy="45.091" r="8.7" fill-opacity=".438" transform="scale(1 -1) rotate(22.5 350.47 0)"/>
    <circle cx="110.776" cy="25.624" r="8.75" fill-opacity=".375" transform="scale(1 -1) rotate(45 172.638 0)"/>
    <circle cx="91.31" cy="12.619" r="8" fill-opacity=".313" transform="scale(1 -1) rotate(67.5 110.195 0)"/>
    <circle cx="68.35" cy="8.05" r="8.05" fill-opacity=".25" transform="matrix(0 -1 -1 0 76.4 76.4)"/>
    <circle cx="45.389" cy="12.618" r="8.1" fill-opacity=".188" transform="scale(-1 1) rotate(-67.5 0 80.547)"/>
    <circle cx="25.923" cy="25.624" r="8.15" fill-opacity=".125" transform="scale(-1 1) rotate(-45 0 88.208)"/>
    <circle cx="12.917" cy="45.089" r="8.2" fill-opacity=".063" transform="scale(-1 1) rotate(-22.5 0 110.03)"/>
  </g></g></g></g></svg>
  <svg id="svg-attachment_doc" viewBox="0 0 40 48"><g id="svg-attachment_doc-dark"><g id="svg-attachment_doc-light"><g id="svg-attachment_doc-hl2bg"><g fill="currentColor">
    <path fill="#005eb8" d="M40 48H0V0h27.98L40 11.97V48z"/>
    <path d="M10.1 39.5H9v-.62a2.4 2.4 0 01-1.83.78c-1.55 0-2.52-1.2-2.52-3.09s1-3 2.52-3a2.4 2.4 0 011.83.76V31.5h1.1zm-4.34-2.9c0 1.37.6 2.13 1.64 2.13s1.66-.76 1.66-2.1-.59-2.15-1.66-2.15-1.64.76-1.64 2.12zm11.24.05a2.8 2.8 0 11-5.57 0 2.8 2.8 0 115.57 0zm-4.46 0c0 1.35.61 2.13 1.68 2.13s1.67-.78 1.67-2.1-.6-2.15-1.68-2.15-1.67.72-1.67 2.07zm9.83-.98a1.37 1.37 0 00-1.47-1.19c-1 0-1.76.84-1.76 2.11s.7 2.14 1.76 2.14a1.45 1.45 0 001.54-1.4h1a2.4 2.4 0 01-2.6 2.33A2.78 2.78 0 0118 36.6a2.79 2.79 0 012.89-3.05 2.29 2.29 0 012.49 2.12z" fill="#fff"/>
    <path fill="#004281" d="M28.02 11.97V0L40 11.97H28.02z"/>
  </g></g></g></g></svg>
  <svg id="svg-attachment_file" viewBox="0 0 40 48"><g id="svg-attachment_file-dark"><g id="svg-attachment_file-light"><g id="svg-attachment_file-hl2bg"><g fill="currentColor">
    <path fill="#b9b9b9" d="M40 48H0V0h27.98L40 11.97V48z"/>
    <path d="M7.22 34.58h-1v4.92H5.1v-4.92h-.81v-.87h.81v-1c0-1 .43-1.4 1.54-1.4a2.65 2.65 0 01.58.06v.93H6.8c-.47 0-.59.15-.59.79v.6h1zm2.06-1.8H8.17V31.5h1.11zm0 6.72H8.17v-5.79h1.11zm2.72 0h-1.1v-8H12zm2.41-2.63c.09 1.19.69 1.86 1.68 1.86a1.4 1.4 0 001.41-1h1.05a2.38 2.38 0 01-2.48 1.93 2.79 2.79 0 01-2.76-3.06A2.76 2.76 0 0116 33.55a2.39 2.39 0 012.38 1.73 5.19 5.19 0 01.22 1.59zm3.07-.8c0-1-.57-1.64-1.45-1.64a1.61 1.61 0 00-1.6 1.64z" fill="#fff"/>
    <path fill="#737373" d="M28.02 11.97V0L40 11.97H28.02z"/>
  </g></g></g></g></svg>
  <svg id="svg-attachment_pdf" viewBox="0 0 40 48"><g id="svg-attachment_pdf-dark"><g id="svg-attachment_pdf-light"><g id="svg-attachment_pdf-hl2bg"><g fill="currentColor">
    <path fill="#ef353b" d="M40 48H0V0h27.98L40 11.97V48z"/>
    <path d="M6.05 33.66v.64a2.31 2.31 0 011.76-.76c1.55 0 2.57 1.22 2.57 3.11s-1 3-2.47 3a2.3 2.3 0 01-1.86-.82v2.5H5v-7.67zM6 36.56c0 1.41.57 2.17 1.64 2.17S9.26 38 9.26 36.6s-.58-2.14-1.63-2.14S6 35.23 6 36.56zm10.85 2.94h-1.11v-.62a2.4 2.4 0 01-1.83.78c-1.55 0-2.52-1.2-2.52-3.09s1-3 2.52-3a2.4 2.4 0 011.83.78V31.5h1.11zm-4.34-2.9c0 1.37.59 2.13 1.64 2.13s1.65-.76 1.65-2.1-.58-2.15-1.65-2.15-1.64.76-1.64 2.12zm8.23-2.02h-1v4.92h-1.13v-4.92h-.81v-.87h.81v-1c0-1 .43-1.4 1.54-1.4a2.79 2.79 0 01.59.06v.93h-.42c-.48 0-.6.15-.6.79v.6h1z" fill="#fff"/>
    <path fill="#a72529" d="M28.02 11.97V0L40 11.97H28.02z"/>
  </g></g></g></g></svg>
  <svg id="svg-attachment_sheet" viewBox="0 0 40 48"><g id="svg-attachment_sheet-dark"><g id="svg-attachment_sheet-light"><g id="svg-attachment_sheet-hl2bg"><g fill="currentColor">
    <path fill="#33ab7e" d="M40 48H0V0h27.98L40 11.97V48z"/>
    <path d="M8.28 35.48a1.16 1.16 0 00-1.32-1c-.66 0-1.1.28-1.1.69s.2.48.67.6l1.34.34c1.21.32 1.72.82 1.72 1.71 0 1.14-.94 1.86-2.41 1.86a2.31 2.31 0 01-2.63-2.15h1.09c.06.77.64 1.22 1.56 1.22s1.31-.34 1.31-.88-.25-.59-.93-.77l-1.15-.29a2.85 2.85 0 01-1.22-.54 1.36 1.36 0 01-.43-1c0-1 .92-1.71 2.23-1.71a2.44 2.44 0 011.92.77 1.94 1.94 0 01.41 1.16zm3.6-1.24a2.34 2.34 0 011.73-.69 2 2 0 011.63.67 2 2 0 01.38 1.41v3.87h-1.1v-3.69a1.27 1.27 0 00-.24-.94 1.17 1.17 0 00-.89-.33 1.39 1.39 0 00-1.51 1.54v3.42h-1.1v-8h1.1zm6.18 2.63c.09 1.19.68 1.86 1.68 1.86a1.39 1.39 0 001.4-1h1.06a2.39 2.39 0 01-2.48 1.93A2.78 2.78 0 0117 36.6a2.76 2.76 0 012.72-3.05 2.37 2.37 0 012.37 1.73 4.87 4.87 0 01.23 1.59zm3.07-.8c-.05-1-.57-1.64-1.45-1.64a1.62 1.62 0 00-1.61 1.64zm3.28.8c.08 1.19.68 1.86 1.68 1.86a1.39 1.39 0 001.4-1h1.06a2.4 2.4 0 01-2.49 1.93 2.78 2.78 0 01-2.75-3.06A2.76 2.76 0 0126 33.55a2.37 2.37 0 012.37 1.73 4.87 4.87 0 01.23 1.59zm3.07-.8c-.05-1-.58-1.64-1.45-1.64a1.62 1.62 0 00-1.61 1.64zm4.74-1.49h-1v3.64c0 .33.15.53.43.53a1.64 1.64 0 00.61-.16v.9a3.57 3.57 0 01-.92.13c-.83 0-1.23-.44-1.23-1.4v-3.64h-.78v-.87h.78v-1.84h1.11v1.84h1z" fill="#fff"/>
    <path fill="#00965e" d="M28.02 11.97V0L40 11.97H28.02z"/>
  </g></g></g></g></svg>
  <svg id="svg-attachment_slide" viewBox="0 0 40 48"><g id="svg-attachment_slide-dark"><g id="svg-attachment_slide-light"><g id="svg-attachment_slide-hl2bg"><g fill="currentColor">
    <path fill="#ffcd00" d="M40 48H0V0h27.98L40 11.97V48z"/>
    <path d="M8.28 35.48a1.16 1.16 0 00-1.32-1c-.66 0-1.1.28-1.1.69s.2.48.67.6l1.34.34c1.21.32 1.72.82 1.72 1.71 0 1.14-.94 1.86-2.41 1.86a2.31 2.31 0 01-2.63-2.15h1.09c.06.77.64 1.22 1.56 1.22s1.31-.34 1.31-.88-.25-.59-.93-.77l-1.15-.29a2.85 2.85 0 01-1.22-.54 1.36 1.36 0 01-.43-1c0-1 .92-1.7 2.23-1.7a2.44 2.44 0 011.92.77 1.94 1.94 0 01.41 1.16zm3.6 4.02h-1.1v-8h1.1zm2.71-6.72h-1.1V31.5h1.1zm0 6.72h-1.1v-5.79h1.1zm6.77 0h-1.1v-.62a2.43 2.43 0 01-1.84.78c-1.55 0-2.52-1.2-2.52-3.09s1-3 2.52-3a2.42 2.42 0 011.84.78V31.5h1.1zM17 36.6c0 1.37.6 2.13 1.64 2.13s1.66-.76 1.66-2.1-.59-2.15-1.66-2.15S17 35.24 17 36.6zm6.79.27c.08 1.19.68 1.86 1.67 1.86a1.4 1.4 0 001.41-1h1.05a2.38 2.38 0 01-2.48 1.93 2.79 2.79 0 01-2.76-3.06 2.76 2.76 0 012.72-3.05 2.38 2.38 0 012.38 1.73 5.48 5.48 0 01.22 1.59zm3.07-.8c-.05-1-.58-1.64-1.46-1.64a1.61 1.61 0 00-1.6 1.64z" fill="#2d2d2d"/>
    <path fill="#b39000" d="M28.02 11.97V0L40 11.97H28.02z"/>
  </g></g></g></g></svg>
</svg>
